<svg xmlns="http://www.w3.org/2000/svg" width="16.367" height="16" viewBox="0 0 16.367 16">
  <g id="Call" opacity="0.3">
    <path id="Shape" d="M16.293,12.754l-.081-.24a2.28,2.28,0,0,0-1.406-1.3l-2.15-.574a2.141,2.141,0,0,0-1.842.471l-.778.761A8.165,8.165,0,0,1,4.226,6.191L5,5.43a2.025,2.025,0,0,0,.481-1.8L4.9,1.527A2.27,2.27,0,0,0,3.569.153L3.324.072A1.984,1.984,0,0,0,1.506.491L.342,1.63A2.1,2.1,0,0,0,0,2.413a13.29,13.29,0,0,0,4.023,9.652A13.915,13.915,0,0,0,13.864,16a2.192,2.192,0,0,0,.836-.33l1.164-1.138A1.877,1.877,0,0,0,16.293,12.754Z" fill="#292f4c"/>
  </g>
</svg>
