<svg id="Group" xmlns="http://www.w3.org/2000/svg" xmlns:xlink="http://www.w3.org/1999/xlink" width="520" height="110" viewBox="0 0 520 110">
  <defs>
    <linearGradient id="linear-gradient" x2="1" y2="1" gradientUnits="objectBoundingBox">
      <stop offset="0" stop-color="#00ffcb"/>
      <stop offset="1" stop-color="#94ffa2"/>
    </linearGradient>
  </defs>
  <rect id="Background" width="520" height="110" rx="2"/>
  <g id="Icon" transform="translate(440 35)">
    <g id="Group-2" data-name="Group" transform="translate(2 2)">
      <path id="Oval" d="M0,18A18,18,0,1,0,18,0,18,18,0,0,0,0,18Z" fill="#fff"/>
      <path id="Line" d="M3.857,8.875V1.333A1.333,1.333,0,0,0,2.524,0H1.333A1.333,1.333,0,0,0,0,1.333V11.667A1.333,1.333,0,0,0,1.333,13H9.667A1.333,1.333,0,0,0,11,11.667V10.208A1.333,1.333,0,0,0,9.667,8.875Z" transform="translate(16 8)"/>
    </g>
    <rect id="Bounds" width="40" height="40" fill="none"/>
  </g>
  <path id="Background-2" data-name="Background" d="M2,0H400a0,0,0,0,1,0,0V110a0,0,0,0,1,0,0H2a2,2,0,0,1-2-2V2A2,2,0,0,1,2,0Z" fill="#fff"/>
  <rect id="Shape" width="120" height="18" rx="2" transform="translate(120 62)"/>
  <rect id="Shape-2" data-name="Shape" width="150" height="12" rx="2" transform="translate(120 30)" fill="url(#linear-gradient)"/>
  <g id="Icon-2" data-name="Icon" transform="translate(30 25)">
    <g id="Group-3" data-name="Group">
      <path id="Oval-2" data-name="Oval" d="M31.579,60C46.569,60,60,46.569,60,31.579,60,13.431,46.569,0,31.579,0,13.431,0,0,13.431,0,31.579,0,46.569,13.431,60,31.579,60Z"/>
      <text id="Label" transform="translate(30.5 33)" fill="#fff" font-size="20" font-family="Helvetica"><tspan x="-6.67" y="0">A</tspan></text>
    </g>
    <rect id="Bounds-2" data-name="Bounds" width="60" height="60" fill="none"/>
  </g>
</svg>
