<svg xmlns="http://www.w3.org/2000/svg" width="24" height="23.998" viewBox="0 0 24 23.998">
  <g id="Home" transform="translate(-38 -25)">
    <path id="Home-2" data-name="Home" d="M13.714.108,24,8.633c-.247,0,0,.5,0,1.714V22.284A1.714,1.714,0,0,1,22.286,24H17.143a2.229,2.229,0,0,1-1.714-1.714V17.169c.274-1.666-.5-2.434-1.714-1.706H10.286c-1.241-.729-2.019.039-1.714,1.706v5.115A2.314,2.314,0,0,1,6.857,24H1.714A1.714,1.714,0,0,1,0,22.284V10.347C0,9.139.247,8.633,0,8.633L10.286.108a13.659,13.659,0,0,1,3.429,0" transform="translate(38 25)" fill="#fff" opacity="0.3"/>
  </g>
</svg>
