<svg id="Send_Button" data-name="Send Button" xmlns="http://www.w3.org/2000/svg" xmlns:xlink="http://www.w3.org/1999/xlink" width="52" height="52" viewBox="0 0 52 52">
  <defs>
    <clipPath id="clip-path">
      <rect id="Base" width="52" height="52" rx="26" fill="#f44a4a"/>
    </clipPath>
    <clipPath id="clip-path-2">
      <path id="Send" d="M23.228.085a.354.354,0,0,0-.377-.053L.2,10.369a.34.34,0,0,0-.007.619l6.41,3.09a.354.354,0,0,0,.363-.033L13.2,9.469,8.307,14.412a.339.339,0,0,0-.1.265L8.7,20.908a.344.344,0,0,0,.239.3.356.356,0,0,0,.109.017.352.352,0,0,0,.264-.119l3.4-3.872,4.206,1.974a.355.355,0,0,0,.29.005A.345.345,0,0,0,17.4,19L23.331.445A.339.339,0,0,0,23.228.085Z" transform="translate(13.265 15.388)" fill="#fff"/>
    </clipPath>
  </defs>
  <rect id="Base-2" data-name="Base" width="52" height="52" rx="26" fill="#f44a4a"/>
  <path id="Send-2" data-name="Send" d="M23.228.085a.354.354,0,0,0-.377-.053L.2,10.369a.34.34,0,0,0-.007.619l6.41,3.09a.354.354,0,0,0,.363-.033L13.2,9.469,8.307,14.412a.339.339,0,0,0-.1.265L8.7,20.908a.344.344,0,0,0,.239.3.356.356,0,0,0,.109.017.352.352,0,0,0,.264-.119l3.4-3.872,4.206,1.974a.355.355,0,0,0,.29.005A.345.345,0,0,0,17.4,19L23.331.445A.339.339,0,0,0,23.228.085Z" transform="translate(13.265 15.388)" fill="#fff"/>
</svg>
