<svg xmlns="http://www.w3.org/2000/svg" width="26" height="24" viewBox="0 0 26 24">
  <g id="Users" transform="translate(-37 -25)">
    <path id="Users-2" data-name="Users" d="M18.918,24H7.082a3.693,3.693,0,0,1-2.627-.932,3.331,3.331,0,0,1-.988-2.537c0-.48.016-.946.048-1.387a13.628,13.628,0,0,1,.189-1.46,11.337,11.337,0,0,1,.359-1.453,6.835,6.835,0,0,1,.582-1.306,4.739,4.739,0,0,1,.84-1.084,3.559,3.559,0,0,1,1.157-.717,4.137,4.137,0,0,1,1.51-.267,1.6,1.6,0,0,1,.582.288c.3.191.629.407.988.643a6,6,0,0,0,1.449.643,5.948,5.948,0,0,0,3.657,0,5.98,5.98,0,0,0,1.449-.643c.359-.235.691-.452.988-.643a1.6,1.6,0,0,1,.582-.288,4.13,4.13,0,0,1,1.51.267,3.573,3.573,0,0,1,1.158.717,4.739,4.739,0,0,1,.84,1.084,6.886,6.886,0,0,1,.581,1.306,11.18,11.18,0,0,1,.359,1.453,13.873,13.873,0,0,1,.19,1.46c.031.445.047.912.047,1.387a3.331,3.331,0,0,1-.988,2.537A3.693,3.693,0,0,1,18.918,24Zm4.455-10.285H21.559A4.707,4.707,0,0,0,17.969,12a5.877,5.877,0,0,0,1.1-3.429A6.653,6.653,0,0,0,19,7.688,5.532,5.532,0,0,0,20.8,8a4.807,4.807,0,0,0,1.611-.288,8.987,8.987,0,0,0,1.32-.569,2.612,2.612,0,0,1,.589-.282C25.435,6.857,26,8.448,26,11.585a1.836,1.836,0,0,1-.759,1.588A3.144,3.144,0,0,1,23.373,13.715ZM13,13.714a5.061,5.061,0,0,1-3.677-1.507A4.95,4.95,0,0,1,7.8,8.572,4.95,4.95,0,0,1,9.323,4.936,5.061,5.061,0,0,1,13,3.429a5.063,5.063,0,0,1,3.677,1.507A4.95,4.95,0,0,1,18.2,8.572a4.95,4.95,0,0,1-1.523,3.636A5.063,5.063,0,0,1,13,13.714Zm-8.558,0H2.627a3.144,3.144,0,0,1-1.868-.542A1.836,1.836,0,0,1,0,11.585C0,8.448.565,6.857,1.679,6.857a2.592,2.592,0,0,1,.589.282,9.029,9.029,0,0,0,1.32.569A4.809,4.809,0,0,0,5.2,8,5.523,5.523,0,0,0,7,7.688a6.646,6.646,0,0,0-.068.884A5.878,5.878,0,0,0,8.03,12a4.709,4.709,0,0,0-3.588,1.714ZM20.8,6.857a3.373,3.373,0,0,1-2.452-1,3.3,3.3,0,0,1-1.015-2.424A3.3,3.3,0,0,1,18.349,1a3.493,3.493,0,0,1,4.9,0,3.3,3.3,0,0,1,1.015,2.425,3.3,3.3,0,0,1-1.015,2.424A3.375,3.375,0,0,1,20.8,6.857Zm-15.6,0a3.376,3.376,0,0,1-2.452-1A3.3,3.3,0,0,1,1.733,3.429,3.3,3.3,0,0,1,2.749,1,3.376,3.376,0,0,1,5.2,0,3.372,3.372,0,0,1,7.651,1,3.3,3.3,0,0,1,8.667,3.429,3.3,3.3,0,0,1,7.651,5.853,3.372,3.372,0,0,1,5.2,6.857Z" transform="translate(37 25)" fill="#fff" opacity="0.3"/>
  </g>
</svg>
