<svg xmlns="http://www.w3.org/2000/svg" width="24.001" height="24" viewBox="0 0 24.001 24">
  <g id="Settings" transform="translate(0.001)">
    <path id="Settings-2" data-name="Settings" d="M14.47,24H9.535a.6.6,0,0,1-.6-.5l-.469-3.181A9.138,9.138,0,0,1,6.377,19.14l-3.072,1.2a.642.642,0,0,1-.215.037.61.61,0,0,1-.537-.3L.086,15.924a.593.593,0,0,1,.149-.768l2.6-1.98A9.143,9.143,0,0,1,2.75,12a9.105,9.105,0,0,1,.086-1.175l-2.6-1.98a.579.579,0,0,1-.149-.769L2.553,3.924a.6.6,0,0,1,.527-.305.631.631,0,0,1,.225.042l3.072,1.2A9.508,9.508,0,0,1,8.462,3.684L8.931.5a.6.6,0,0,1,.6-.5H14.47a.6.6,0,0,1,.6.5l.469,3.18A9.164,9.164,0,0,1,17.628,4.86L20.7,3.66a.642.642,0,0,1,.215-.037.61.61,0,0,1,.537.3L23.92,8.076a.6.6,0,0,1-.149.769l-2.6,1.98A9.219,9.219,0,0,1,21.255,12a9.208,9.208,0,0,1-.086,1.176l2.6,1.98a.593.593,0,0,1,.149.768l-2.468,4.153a.6.6,0,0,1-.528.305.628.628,0,0,1-.225-.042l-3.072-1.2a9.456,9.456,0,0,1-2.085,1.175L15.074,23.5A.6.6,0,0,1,14.47,24ZM12,7.8A4.264,4.264,0,0,0,7.685,12a4.319,4.319,0,0,0,8.635,0A4.265,4.265,0,0,0,12,7.8Z" fill="#fff" opacity="0.3"/>
  </g>
</svg>
