<svg id="Background" xmlns="http://www.w3.org/2000/svg" xmlns:xlink="http://www.w3.org/1999/xlink" width="1440" height="1024" viewBox="0 0 1440 1024">
  <defs>
    <linearGradient id="linear-gradient" x2="1" y2="1" gradientUnits="objectBoundingBox">
      <stop offset="0" stop-color="#00ffcb"/>
      <stop offset="1" stop-color="#94ffa2"/>
    </linearGradient>
    <clipPath id="clip-path">
      <rect id="Mask" width="1440" height="1024" fill="url(#linear-gradient)"/>
    </clipPath>
  </defs>
  <rect id="Mask-2" data-name="Mask" width="1440" height="1024" fill="url(#linear-gradient)"/>
  <g id="Background-2" data-name="Background" clip-path="url(#clip-path)">
    <g id="Pattern">
      <path id="Shape" d="M576,556H0V0Z" transform="translate(1152 556)" opacity="0.03"/>
      <path id="Shape-2" data-name="Shape" d="M288,278H0V0Z" transform="translate(576 556)" opacity="0.03"/>
      <path id="Shape-3" data-name="Shape" d="M288,278H0V0Z" transform="translate(288 834)" opacity="0.03"/>
      <path id="Shape-4" data-name="Shape" d="M288,278H0V0Z" transform="translate(0 556)" opacity="0.03"/>
      <path id="Shape-5" data-name="Shape" d="M288,278H0V0Z" transform="translate(1440 278)" opacity="0.03"/>
      <path id="Shape-6" data-name="Shape" d="M288,278H0V0Z" transform="translate(1152 278)" opacity="0.03"/>
      <path id="Shape-7" data-name="Shape" d="M288,278H0V0Z" transform="translate(864)" opacity="0.03"/>
      <path id="Shape-8" data-name="Shape" d="M576,556H0V0Z" transform="translate(576)" opacity="0.03"/>
      <path id="Shape-9" data-name="Shape" d="M288,278H0V0Z" transform="translate(288 278)" opacity="0.03"/>
      <path id="Shape-10" data-name="Shape" d="M288,278H0V0Z" opacity="0.03"/>
    </g>
  </g>
</svg>
